G04 #@! TF.GenerationSoftware,KiCad,Pcbnew,7.0.2*
G04 #@! TF.CreationDate,2023-06-21T11:38:28+03:00*
G04 #@! TF.ProjectId,ELIESTER_V2,454c4945-5354-4455-925f-56322e6b6963,rev?*
G04 #@! TF.SameCoordinates,Original*
G04 #@! TF.FileFunction,Paste,Top*
G04 #@! TF.FilePolarity,Positive*
%FSLAX46Y46*%
G04 Gerber Fmt 4.6, Leading zero omitted, Abs format (unit mm)*
G04 Created by KiCad (PCBNEW 7.0.2) date 2023-06-21 11:38:28*
%MOMM*%
%LPD*%
G01*
G04 APERTURE LIST*
G04 Aperture macros list*
%AMRoundRect*
0 Rectangle with rounded corners*
0 $1 Rounding radius*
0 $2 $3 $4 $5 $6 $7 $8 $9 X,Y pos of 4 corners*
0 Add a 4 corners polygon primitive as box body*
4,1,4,$2,$3,$4,$5,$6,$7,$8,$9,$2,$3,0*
0 Add four circle primitives for the rounded corners*
1,1,$1+$1,$2,$3*
1,1,$1+$1,$4,$5*
1,1,$1+$1,$6,$7*
1,1,$1+$1,$8,$9*
0 Add four rect primitives between the rounded corners*
20,1,$1+$1,$2,$3,$4,$5,0*
20,1,$1+$1,$4,$5,$6,$7,0*
20,1,$1+$1,$6,$7,$8,$9,0*
20,1,$1+$1,$8,$9,$2,$3,0*%
%AMRotRect*
0 Rectangle, with rotation*
0 The origin of the aperture is its center*
0 $1 length*
0 $2 width*
0 $3 Rotation angle, in degrees counterclockwise*
0 Add horizontal line*
21,1,$1,$2,0,0,$3*%
G04 Aperture macros list end*
%ADD10RoundRect,0.135000X-0.185000X0.135000X-0.185000X-0.135000X0.185000X-0.135000X0.185000X0.135000X0*%
%ADD11R,0.250000X1.100000*%
%ADD12RoundRect,0.225000X0.225000X0.250000X-0.225000X0.250000X-0.225000X-0.250000X0.225000X-0.250000X0*%
%ADD13R,0.900000X0.950000*%
%ADD14RoundRect,0.140000X0.170000X-0.140000X0.170000X0.140000X-0.170000X0.140000X-0.170000X-0.140000X0*%
%ADD15RoundRect,0.140000X-0.140000X-0.170000X0.140000X-0.170000X0.140000X0.170000X-0.140000X0.170000X0*%
%ADD16RoundRect,0.135000X0.135000X0.185000X-0.135000X0.185000X-0.135000X-0.185000X0.135000X-0.185000X0*%
%ADD17RoundRect,0.225000X0.250000X-0.225000X0.250000X0.225000X-0.250000X0.225000X-0.250000X-0.225000X0*%
%ADD18R,2.500000X1.800000*%
%ADD19RoundRect,0.200000X0.200000X0.275000X-0.200000X0.275000X-0.200000X-0.275000X0.200000X-0.275000X0*%
%ADD20RoundRect,0.135000X0.185000X-0.135000X0.185000X0.135000X-0.185000X0.135000X-0.185000X-0.135000X0*%
%ADD21RoundRect,0.135000X-0.135000X-0.185000X0.135000X-0.185000X0.135000X0.185000X-0.135000X0.185000X0*%
%ADD22R,1.950000X3.500000*%
%ADD23R,0.800000X3.400000*%
%ADD24RoundRect,0.218750X-0.218750X-0.256250X0.218750X-0.256250X0.218750X0.256250X-0.218750X0.256250X0*%
%ADD25RoundRect,0.200000X-0.275000X0.200000X-0.275000X-0.200000X0.275000X-0.200000X0.275000X0.200000X0*%
%ADD26RoundRect,0.140000X-0.170000X0.140000X-0.170000X-0.140000X0.170000X-0.140000X0.170000X0.140000X0*%
%ADD27RoundRect,0.140000X0.140000X0.170000X-0.140000X0.170000X-0.140000X-0.170000X0.140000X-0.170000X0*%
%ADD28RoundRect,0.150000X-0.587500X-0.150000X0.587500X-0.150000X0.587500X0.150000X-0.587500X0.150000X0*%
%ADD29RoundRect,0.155000X-0.212500X-0.155000X0.212500X-0.155000X0.212500X0.155000X-0.212500X0.155000X0*%
%ADD30RoundRect,0.250000X-0.412500X-0.650000X0.412500X-0.650000X0.412500X0.650000X-0.412500X0.650000X0*%
%ADD31RoundRect,0.140000X-0.021213X0.219203X-0.219203X0.021213X0.021213X-0.219203X0.219203X-0.021213X0*%
%ADD32R,0.900000X1.200000*%
%ADD33R,1.600000X3.000000*%
%ADD34RoundRect,0.250000X-1.000000X-0.650000X1.000000X-0.650000X1.000000X0.650000X-1.000000X0.650000X0*%
%ADD35RoundRect,0.155000X0.212500X0.155000X-0.212500X0.155000X-0.212500X-0.155000X0.212500X-0.155000X0*%
%ADD36RoundRect,0.150000X0.587500X0.150000X-0.587500X0.150000X-0.587500X-0.150000X0.587500X-0.150000X0*%
%ADD37R,1.000000X0.900000*%
%ADD38R,0.600000X1.200000*%
%ADD39RoundRect,0.225000X-0.250000X0.225000X-0.250000X-0.225000X0.250000X-0.225000X0.250000X0.225000X0*%
%ADD40RoundRect,0.150000X0.875000X0.150000X-0.875000X0.150000X-0.875000X-0.150000X0.875000X-0.150000X0*%
%ADD41RoundRect,0.075000X-0.662500X-0.075000X0.662500X-0.075000X0.662500X0.075000X-0.662500X0.075000X0*%
%ADD42RoundRect,0.075000X-0.075000X-0.662500X0.075000X-0.662500X0.075000X0.662500X-0.075000X0.662500X0*%
%ADD43R,2.000000X2.500000*%
%ADD44R,0.650000X0.400000*%
%ADD45R,1.300000X0.600000*%
%ADD46R,1.800000X2.500000*%
%ADD47RoundRect,0.218750X0.218750X0.256250X-0.218750X0.256250X-0.218750X-0.256250X0.218750X-0.256250X0*%
%ADD48RoundRect,0.218750X0.256250X-0.218750X0.256250X0.218750X-0.256250X0.218750X-0.256250X-0.218750X0*%
%ADD49R,4.000000X5.500000*%
%ADD50R,1.350000X0.400000*%
%ADD51R,1.900000X1.500000*%
%ADD52RoundRect,0.200000X-0.200000X-0.275000X0.200000X-0.275000X0.200000X0.275000X-0.200000X0.275000X0*%
%ADD53RoundRect,0.125000X-0.825000X-0.125000X0.825000X-0.125000X0.825000X0.125000X-0.825000X0.125000X0*%
%ADD54RoundRect,0.225000X-0.225000X-0.250000X0.225000X-0.250000X0.225000X0.250000X-0.225000X0.250000X0*%
%ADD55RoundRect,0.140000X0.219203X0.021213X0.021213X0.219203X-0.219203X-0.021213X-0.021213X-0.219203X0*%
%ADD56R,3.000000X1.600000*%
%ADD57R,0.900000X1.000000*%
%ADD58R,1.200000X0.600000*%
%ADD59R,0.950000X0.900000*%
%ADD60RoundRect,0.250000X-0.650000X1.000000X-0.650000X-1.000000X0.650000X-1.000000X0.650000X1.000000X0*%
%ADD61R,2.000000X0.900000*%
%ADD62R,0.900000X2.000000*%
%ADD63R,5.000000X5.000000*%
%ADD64RoundRect,0.150000X-0.825000X-0.150000X0.825000X-0.150000X0.825000X0.150000X-0.825000X0.150000X0*%
%ADD65R,0.650000X1.050000*%
%ADD66R,0.600000X2.000000*%
%ADD67RoundRect,0.200000X0.275000X-0.200000X0.275000X0.200000X-0.275000X0.200000X-0.275000X-0.200000X0*%
%ADD68RoundRect,0.150000X-0.675000X-0.150000X0.675000X-0.150000X0.675000X0.150000X-0.675000X0.150000X0*%
%ADD69RoundRect,0.150000X-0.150000X0.587500X-0.150000X-0.587500X0.150000X-0.587500X0.150000X0.587500X0*%
%ADD70R,0.600000X1.300000*%
%ADD71R,1.800000X2.200000*%
%ADD72RotRect,1.150000X1.000000X225.000000*%
%ADD73R,1.200000X1.400000*%
%ADD74R,2.500000X5.100000*%
%ADD75C,17.800000*%
%ADD76RoundRect,0.150000X0.512500X0.150000X-0.512500X0.150000X-0.512500X-0.150000X0.512500X-0.150000X0*%
%ADD77RoundRect,0.225000X0.375000X-0.225000X0.375000X0.225000X-0.375000X0.225000X-0.375000X-0.225000X0*%
G04 APERTURE END LIST*
D10*
X183450000Y-74690000D03*
X183450000Y-75710000D03*
D11*
X228050000Y-68900000D03*
X228550000Y-68900000D03*
X229050000Y-68900000D03*
X229550000Y-68900000D03*
X230050000Y-68900000D03*
X230050000Y-64600000D03*
X229550000Y-64600000D03*
X229050000Y-64600000D03*
X228550000Y-64600000D03*
X228050000Y-64600000D03*
D12*
X219725000Y-85450000D03*
X218175000Y-85450000D03*
D13*
X164625000Y-101400000D03*
X167775000Y-101400000D03*
D14*
X239000000Y-113010000D03*
X239000000Y-112050000D03*
D15*
X200470000Y-127800000D03*
X201430000Y-127800000D03*
D16*
X251010000Y-75150000D03*
X249990000Y-75150000D03*
D17*
X186362500Y-89425000D03*
X186362500Y-87875000D03*
D18*
X193290000Y-76575000D03*
X197290000Y-76575000D03*
D19*
X166225000Y-103350000D03*
X164575000Y-103350000D03*
D10*
X218400000Y-104640000D03*
X218400000Y-105660000D03*
D16*
X188510000Y-72800000D03*
X187490000Y-72800000D03*
D20*
X232750000Y-118510000D03*
X232750000Y-117490000D03*
D10*
X226650000Y-104140000D03*
X226650000Y-105160000D03*
D21*
X170190000Y-134350000D03*
X171210000Y-134350000D03*
X243540000Y-103200000D03*
X244560000Y-103200000D03*
D22*
X242612500Y-124950000D03*
X246662500Y-124950000D03*
D23*
X244637500Y-124950000D03*
D15*
X235370000Y-82050000D03*
X236330000Y-82050000D03*
D17*
X175050000Y-68275000D03*
X175050000Y-66725000D03*
D24*
X243425000Y-104800000D03*
X245000000Y-104800000D03*
D14*
X230150000Y-63100000D03*
X230150000Y-62140000D03*
D15*
X198445000Y-133450000D03*
X199405000Y-133450000D03*
D12*
X189775000Y-94740000D03*
X188225000Y-94740000D03*
D10*
X199025000Y-131290000D03*
X199025000Y-132310000D03*
D25*
X177650000Y-93325000D03*
X177650000Y-94975000D03*
D26*
X181050000Y-74720000D03*
X181050000Y-75680000D03*
D27*
X243980000Y-110900000D03*
X243020000Y-110900000D03*
X185655000Y-132650000D03*
X184695000Y-132650000D03*
D28*
X192212500Y-82400000D03*
X192212500Y-84300000D03*
X194087500Y-83350000D03*
X197362500Y-116050000D03*
X197362500Y-117950000D03*
X199237500Y-117000000D03*
D29*
X168445000Y-109950000D03*
X169580000Y-109950000D03*
D30*
X176637500Y-135150000D03*
X179762500Y-135150000D03*
D31*
X175389411Y-108335589D03*
X174710589Y-109014411D03*
D21*
X184665000Y-135450000D03*
X185685000Y-135450000D03*
X181852500Y-91100000D03*
X182872500Y-91100000D03*
D27*
X226780000Y-87400000D03*
X225820000Y-87400000D03*
D28*
X196212500Y-82400000D03*
X196212500Y-84300000D03*
X198087500Y-83350000D03*
D27*
X178330000Y-107625000D03*
X177370000Y-107625000D03*
D32*
X193750000Y-113600000D03*
X197050000Y-113600000D03*
D33*
X244380000Y-86610000D03*
X246920000Y-86610000D03*
X246920000Y-78990000D03*
X244380000Y-78990000D03*
D34*
X248700000Y-130050000D03*
X252700000Y-130050000D03*
D35*
X169597500Y-105800000D03*
X168462500Y-105800000D03*
D14*
X182200000Y-75680000D03*
X182200000Y-74720000D03*
D10*
X194300000Y-122380000D03*
X194300000Y-123400000D03*
D26*
X251050000Y-139070000D03*
X251050000Y-140030000D03*
D36*
X195887500Y-111550000D03*
X195887500Y-109650000D03*
X194012500Y-110600000D03*
D33*
X245480000Y-100810000D03*
X248020000Y-100810000D03*
X248020000Y-93190000D03*
X245480000Y-93190000D03*
D14*
X229050000Y-63130000D03*
X229050000Y-62170000D03*
D33*
X239530000Y-100760000D03*
X242070000Y-100760000D03*
X242070000Y-93140000D03*
X239530000Y-93140000D03*
D21*
X200675000Y-123100000D03*
X201695000Y-123100000D03*
D14*
X195125000Y-139330000D03*
X195125000Y-138370000D03*
D37*
X241250000Y-58100000D03*
X244650000Y-58100000D03*
D38*
X240650000Y-56100000D03*
X245250000Y-56100000D03*
D39*
X176550000Y-70675000D03*
X176550000Y-72225000D03*
D21*
X187490000Y-73950000D03*
X188510000Y-73950000D03*
D40*
X215050000Y-107445000D03*
X215050000Y-106175000D03*
X215050000Y-104905000D03*
X215050000Y-103635000D03*
X215050000Y-102365000D03*
X215050000Y-101095000D03*
X215050000Y-99825000D03*
X215050000Y-98555000D03*
X205750000Y-98555000D03*
X205750000Y-99825000D03*
X205750000Y-101095000D03*
X205750000Y-102365000D03*
X205750000Y-103635000D03*
X205750000Y-104905000D03*
X205750000Y-106175000D03*
X205750000Y-107445000D03*
D41*
X188325000Y-129100000D03*
X188325000Y-129600000D03*
X188325000Y-130100000D03*
X188325000Y-130600000D03*
X188325000Y-131100000D03*
X188325000Y-131600000D03*
X188325000Y-132100000D03*
X188325000Y-132600000D03*
X188325000Y-133100000D03*
X188325000Y-133600000D03*
X188325000Y-134100000D03*
X188325000Y-134600000D03*
D42*
X189737500Y-136012500D03*
X190237500Y-136012500D03*
X190737500Y-136012500D03*
X191237500Y-136012500D03*
X191737500Y-136012500D03*
X192237500Y-136012500D03*
X192737500Y-136012500D03*
X193237500Y-136012500D03*
X193737500Y-136012500D03*
X194237500Y-136012500D03*
X194737500Y-136012500D03*
X195237500Y-136012500D03*
D41*
X196650000Y-134600000D03*
X196650000Y-134100000D03*
X196650000Y-133600000D03*
X196650000Y-133100000D03*
X196650000Y-132600000D03*
X196650000Y-132100000D03*
X196650000Y-131600000D03*
X196650000Y-131100000D03*
X196650000Y-130600000D03*
X196650000Y-130100000D03*
X196650000Y-129600000D03*
X196650000Y-129100000D03*
D42*
X195237500Y-127687500D03*
X194737500Y-127687500D03*
X194237500Y-127687500D03*
X193737500Y-127687500D03*
X193237500Y-127687500D03*
X192737500Y-127687500D03*
X192237500Y-127687500D03*
X191737500Y-127687500D03*
X191237500Y-127687500D03*
X190737500Y-127687500D03*
X190237500Y-127687500D03*
X189737500Y-127687500D03*
D27*
X203930000Y-64000000D03*
X202970000Y-64000000D03*
D43*
X190370000Y-90840000D03*
X195370000Y-90840000D03*
D44*
X200835000Y-124500000D03*
X200835000Y-125150000D03*
X200835000Y-125800000D03*
X202735000Y-125800000D03*
X202735000Y-124500000D03*
D36*
X184800000Y-121650000D03*
X184800000Y-119750000D03*
X182925000Y-120700000D03*
D21*
X170780000Y-61950000D03*
X171800000Y-61950000D03*
D45*
X252937500Y-100550000D03*
X252937500Y-98650000D03*
X250837500Y-99600000D03*
D44*
X223200000Y-89500000D03*
X223200000Y-88850000D03*
X223200000Y-88200000D03*
X221300000Y-88200000D03*
X221300000Y-88850000D03*
X221300000Y-89500000D03*
D32*
X174700000Y-101000000D03*
X171400000Y-101000000D03*
D16*
X229560000Y-70600000D03*
X228540000Y-70600000D03*
D27*
X244030000Y-109770000D03*
X243070000Y-109770000D03*
X203945000Y-67630000D03*
X202985000Y-67630000D03*
D17*
X178125000Y-68275000D03*
X178125000Y-66725000D03*
D46*
X182550000Y-66300000D03*
X182550000Y-62300000D03*
D25*
X179600000Y-74925000D03*
X179600000Y-76575000D03*
D47*
X185887500Y-128900000D03*
X184312500Y-128900000D03*
D21*
X186540000Y-121150000D03*
X187560000Y-121150000D03*
D27*
X187530000Y-122200000D03*
X186570000Y-122200000D03*
D33*
X238430000Y-86610000D03*
X240970000Y-86610000D03*
X240970000Y-78990000D03*
X238430000Y-78990000D03*
D21*
X241452500Y-119400000D03*
X242472500Y-119400000D03*
D39*
X190690000Y-78800000D03*
X190690000Y-80350000D03*
D48*
X201550000Y-76037500D03*
X201550000Y-74462500D03*
D49*
X186825000Y-61635000D03*
X196625000Y-61635000D03*
D50*
X164912500Y-107200000D03*
X164912500Y-107850000D03*
X164912500Y-108500000D03*
X164912500Y-109150000D03*
X164912500Y-109800000D03*
D51*
X162212500Y-107500000D03*
X162212500Y-109500000D03*
D16*
X229710000Y-71750000D03*
X228690000Y-71750000D03*
D15*
X186570000Y-123300000D03*
X187530000Y-123300000D03*
D17*
X187962500Y-89425000D03*
X187962500Y-87875000D03*
D16*
X182860000Y-92350000D03*
X181840000Y-92350000D03*
D36*
X184800000Y-125200000D03*
X184800000Y-123300000D03*
X182925000Y-124250000D03*
D12*
X189750000Y-97940000D03*
X188200000Y-97940000D03*
D39*
X194900000Y-68925000D03*
X194900000Y-70475000D03*
D12*
X219625000Y-88850000D03*
X218075000Y-88850000D03*
D32*
X187650000Y-102725000D03*
X184350000Y-102725000D03*
D24*
X250712500Y-81550000D03*
X252287500Y-81550000D03*
D10*
X191950000Y-122330000D03*
X191950000Y-123350000D03*
D15*
X202620000Y-133300000D03*
X203580000Y-133300000D03*
D27*
X203820000Y-106905000D03*
X202860000Y-106905000D03*
D16*
X185310000Y-100925000D03*
X184290000Y-100925000D03*
D52*
X192725000Y-80550000D03*
X194375000Y-80550000D03*
D21*
X186540000Y-117800000D03*
X187560000Y-117800000D03*
D20*
X243612500Y-120610000D03*
X243612500Y-119590000D03*
D10*
X192350000Y-105690000D03*
X192350000Y-106710000D03*
D21*
X186540000Y-118950000D03*
X187560000Y-118950000D03*
D53*
X180250000Y-105025000D03*
X180250000Y-105675000D03*
X180250000Y-106325000D03*
X180250000Y-106975000D03*
X180250000Y-107625000D03*
X180250000Y-108275000D03*
X180250000Y-108925000D03*
X180250000Y-109575000D03*
X180250000Y-110225000D03*
X180250000Y-110875000D03*
X187250000Y-110875000D03*
X187250000Y-110225000D03*
X187250000Y-109575000D03*
X187250000Y-108925000D03*
X187250000Y-108275000D03*
X187250000Y-107625000D03*
X187250000Y-106975000D03*
X187250000Y-106325000D03*
X187250000Y-105675000D03*
X187250000Y-105025000D03*
D26*
X189800000Y-138370000D03*
X189800000Y-139330000D03*
D24*
X251400000Y-102500000D03*
X252975000Y-102500000D03*
D14*
X180175000Y-67400000D03*
X180175000Y-66440000D03*
D27*
X203930000Y-65150000D03*
X202970000Y-65150000D03*
D48*
X200500000Y-138687500D03*
X200500000Y-137112500D03*
D21*
X182040000Y-100925000D03*
X183060000Y-100925000D03*
D54*
X207250000Y-110800000D03*
X208800000Y-110800000D03*
D27*
X185655000Y-134100000D03*
X184695000Y-134100000D03*
D55*
X175139411Y-112714411D03*
X174460589Y-112035589D03*
D36*
X195887500Y-107900000D03*
X195887500Y-106000000D03*
X194012500Y-106950000D03*
D15*
X235390000Y-80750000D03*
X236350000Y-80750000D03*
D21*
X186490000Y-126600000D03*
X187510000Y-126600000D03*
X196415000Y-126250000D03*
X197435000Y-126250000D03*
D56*
X238690000Y-71830000D03*
X238690000Y-74370000D03*
X246310000Y-74370000D03*
X246310000Y-71830000D03*
D12*
X189750000Y-96320000D03*
X188200000Y-96320000D03*
D26*
X193975000Y-138370000D03*
X193975000Y-139330000D03*
D35*
X169597500Y-104600000D03*
X168462500Y-104600000D03*
D26*
X191400000Y-138370000D03*
X191400000Y-139330000D03*
D20*
X203200000Y-76360000D03*
X203200000Y-75340000D03*
D57*
X163800000Y-66400000D03*
X163800000Y-63000000D03*
D58*
X161800000Y-62400000D03*
X161800000Y-67000000D03*
D39*
X178150000Y-70675000D03*
X178150000Y-72225000D03*
D26*
X252200000Y-139070000D03*
X252200000Y-140030000D03*
D52*
X193675000Y-116000000D03*
X195325000Y-116000000D03*
D36*
X195937500Y-104300000D03*
X195937500Y-102400000D03*
X194062500Y-103350000D03*
D21*
X186490000Y-124350000D03*
X187510000Y-124350000D03*
X202955000Y-66480000D03*
X203975000Y-66480000D03*
D59*
X175600000Y-94925000D03*
X175600000Y-91775000D03*
D48*
X203700000Y-138687500D03*
X203700000Y-137112500D03*
D16*
X238715000Y-69640000D03*
X237695000Y-69640000D03*
D21*
X243240000Y-88950000D03*
X244260000Y-88950000D03*
D28*
X243062500Y-106450000D03*
X243062500Y-108350000D03*
X244937500Y-107400000D03*
D60*
X250900000Y-106350000D03*
X250900000Y-110350000D03*
D12*
X206200000Y-120000000D03*
X204650000Y-120000000D03*
D17*
X173400000Y-66775000D03*
X173400000Y-65225000D03*
D21*
X196465000Y-125050000D03*
X197485000Y-125050000D03*
D61*
X206065000Y-63880000D03*
X206065000Y-65150000D03*
X206065000Y-66420000D03*
X206065000Y-67690000D03*
X206065000Y-68960000D03*
X206065000Y-70230000D03*
X206065000Y-71500000D03*
X206065000Y-72770000D03*
X206065000Y-74040000D03*
X206065000Y-75310000D03*
X206065000Y-76580000D03*
X206065000Y-77850000D03*
X206065000Y-79120000D03*
X206065000Y-80390000D03*
D62*
X208850000Y-81390000D03*
X210120000Y-81390000D03*
X211390000Y-81390000D03*
X212660000Y-81390000D03*
X213930000Y-81390000D03*
X215200000Y-81390000D03*
X216470000Y-81390000D03*
X217740000Y-81390000D03*
X219010000Y-81390000D03*
X220280000Y-81390000D03*
D61*
X223065000Y-80390000D03*
X223065000Y-79120000D03*
X223065000Y-77850000D03*
X223065000Y-76580000D03*
X223065000Y-75310000D03*
X223065000Y-74040000D03*
X223065000Y-72770000D03*
X223065000Y-71500000D03*
X223065000Y-70230000D03*
X223065000Y-68960000D03*
X223065000Y-67690000D03*
X223065000Y-66420000D03*
X223065000Y-65150000D03*
X223065000Y-63880000D03*
D63*
X213565000Y-70380000D03*
D17*
X176575000Y-68275000D03*
X176575000Y-66725000D03*
D15*
X186520000Y-125400000D03*
X187480000Y-125400000D03*
D32*
X179500000Y-102725000D03*
X182800000Y-102725000D03*
D15*
X198415000Y-134450000D03*
X199375000Y-134450000D03*
D16*
X181997500Y-83300000D03*
X180977500Y-83300000D03*
D17*
X184762500Y-89450000D03*
X184762500Y-87900000D03*
D64*
X228575000Y-80805000D03*
X228575000Y-82075000D03*
X228575000Y-83345000D03*
X228575000Y-84615000D03*
X228575000Y-85885000D03*
X228575000Y-87155000D03*
X228575000Y-88425000D03*
X228575000Y-89695000D03*
X233525000Y-89695000D03*
X233525000Y-88425000D03*
X233525000Y-87155000D03*
X233525000Y-85885000D03*
X233525000Y-84615000D03*
X233525000Y-83345000D03*
X233525000Y-82075000D03*
X233525000Y-80805000D03*
D21*
X197540000Y-111550000D03*
X198560000Y-111550000D03*
D16*
X223960000Y-83350000D03*
X222940000Y-83350000D03*
D22*
X242575000Y-115100000D03*
X246625000Y-115100000D03*
D23*
X244600000Y-115100000D03*
D39*
X193225000Y-68910000D03*
X193225000Y-70460000D03*
D20*
X241400000Y-107110000D03*
X241400000Y-106090000D03*
D21*
X168140000Y-112750000D03*
X169160000Y-112750000D03*
D64*
X180475000Y-68995000D03*
X180475000Y-70265000D03*
X180475000Y-71535000D03*
X180475000Y-72805000D03*
X185425000Y-72805000D03*
X185425000Y-71535000D03*
X185425000Y-70265000D03*
X185425000Y-68995000D03*
D39*
X226150000Y-84475000D03*
X226150000Y-86025000D03*
D65*
X237150000Y-123900000D03*
X237150000Y-128050000D03*
X235000000Y-123900000D03*
X235000000Y-128050000D03*
D15*
X189170000Y-105675000D03*
X190130000Y-105675000D03*
D24*
X251400000Y-96800000D03*
X252975000Y-96800000D03*
D66*
X208655000Y-112900000D03*
X207385000Y-112900000D03*
X206115000Y-112900000D03*
X204845000Y-112900000D03*
X204845000Y-117800000D03*
X206115000Y-117800000D03*
X207385000Y-117800000D03*
X208655000Y-117800000D03*
D24*
X250712500Y-87100000D03*
X252287500Y-87100000D03*
D15*
X184730000Y-95600000D03*
X185690000Y-95600000D03*
D56*
X246110000Y-65720000D03*
X246110000Y-63180000D03*
X238490000Y-63180000D03*
X238490000Y-65720000D03*
D44*
X223350000Y-86100000D03*
X223350000Y-85450000D03*
X223350000Y-84800000D03*
X221450000Y-84800000D03*
X221450000Y-85450000D03*
X221450000Y-86100000D03*
D21*
X246370000Y-68105000D03*
X247390000Y-68105000D03*
D33*
X228930000Y-104010000D03*
X231470000Y-104010000D03*
X231470000Y-96390000D03*
X228930000Y-96390000D03*
D14*
X236750000Y-113000000D03*
X236750000Y-112040000D03*
D27*
X185730000Y-130300000D03*
X184770000Y-130300000D03*
D29*
X168445000Y-108750000D03*
X169580000Y-108750000D03*
D15*
X183070000Y-117800000D03*
X184030000Y-117800000D03*
D17*
X251100000Y-136375000D03*
X251100000Y-134825000D03*
D67*
X177950000Y-76575000D03*
X177950000Y-74925000D03*
D27*
X203800000Y-107955000D03*
X202840000Y-107955000D03*
D21*
X241452500Y-120700000D03*
X242472500Y-120700000D03*
D39*
X189100000Y-78800000D03*
X189100000Y-80350000D03*
D52*
X196725000Y-80550000D03*
X198375000Y-80550000D03*
D68*
X234437500Y-114345000D03*
X234437500Y-115615000D03*
X234437500Y-116885000D03*
X234437500Y-118155000D03*
X239687500Y-118155000D03*
X239687500Y-116885000D03*
X239687500Y-115615000D03*
X239687500Y-114345000D03*
D24*
X186312500Y-115250000D03*
X187887500Y-115250000D03*
D69*
X251750000Y-76862500D03*
X249850000Y-76862500D03*
X250800000Y-78737500D03*
D21*
X246740000Y-107300000D03*
X247760000Y-107300000D03*
D70*
X236650000Y-133550000D03*
X237650000Y-133550000D03*
X238650000Y-133550000D03*
X239650000Y-133550000D03*
X240650000Y-133550000D03*
X241650000Y-133550000D03*
X242650000Y-133550000D03*
X243650000Y-133550000D03*
X244650000Y-133550000D03*
X245650000Y-133550000D03*
D71*
X234250000Y-136800000D03*
X248050000Y-136800000D03*
D72*
X176373744Y-109411307D03*
X175136307Y-110648744D03*
X176126256Y-111638693D03*
X177363693Y-110401256D03*
D39*
X189950000Y-68925000D03*
X189950000Y-70475000D03*
D14*
X237780000Y-112980000D03*
X237780000Y-112020000D03*
D73*
X201475000Y-129450000D03*
X201475000Y-131650000D03*
X203175000Y-131650000D03*
X203175000Y-129450000D03*
D17*
X192690000Y-139385000D03*
X192690000Y-137835000D03*
D21*
X224050000Y-120650000D03*
X225070000Y-120650000D03*
D52*
X193675000Y-117600000D03*
X195325000Y-117600000D03*
D10*
X193070000Y-122330000D03*
X193070000Y-123350000D03*
D45*
X252200000Y-85250000D03*
X252200000Y-83350000D03*
X250100000Y-84300000D03*
D12*
X228725000Y-79050000D03*
X227175000Y-79050000D03*
D74*
X207000000Y-131150000D03*
X229900000Y-131150000D03*
D75*
X218450000Y-131150000D03*
D33*
X220630000Y-104560000D03*
X223170000Y-104560000D03*
X223170000Y-96940000D03*
X220630000Y-96940000D03*
D47*
X182787500Y-81900000D03*
X181212500Y-81900000D03*
D27*
X226730000Y-82050000D03*
X225770000Y-82050000D03*
D26*
X184750000Y-74720000D03*
X184750000Y-75680000D03*
D28*
X245812500Y-119400000D03*
X245812500Y-121300000D03*
X247687500Y-120350000D03*
D16*
X198710000Y-107900000D03*
X197690000Y-107900000D03*
D47*
X170187500Y-107350000D03*
X168612500Y-107350000D03*
D24*
X200162500Y-121600000D03*
X201737500Y-121600000D03*
D16*
X185720000Y-94450000D03*
X184700000Y-94450000D03*
D39*
X191550000Y-68925000D03*
X191550000Y-70475000D03*
D10*
X253100000Y-76730000D03*
X253100000Y-77750000D03*
D76*
X187950000Y-93050000D03*
X187950000Y-92100000D03*
X187950000Y-91150000D03*
X185675000Y-91150000D03*
X185675000Y-92100000D03*
X185675000Y-93050000D03*
D56*
X223510000Y-118320000D03*
X223510000Y-115780000D03*
X215890000Y-115780000D03*
X215890000Y-118320000D03*
D77*
X171050000Y-66650000D03*
X171050000Y-63350000D03*
M02*
