M48
; DRILL file {KiCad 7.0.2} date Sat Jul 29 12:14:22 2023
; FORMAT={-:-/ absolute / metric / decimal}
; #@! TF.CreationDate,2023-07-29T12:14:22+03:00
; #@! TF.GenerationSoftware,Kicad,Pcbnew,7.0.2
; #@! TF.FileFunction,Plated,1,4,PTH
FMAT,2
METRIC
; #@! TA.AperFunction,Plated,PTH,ViaDrill
T1C0.300
; #@! TA.AperFunction,Plated,PTH,ViaDrill
T2C0.400
; #@! TA.AperFunction,Plated,PTH,ComponentDrill
T3C0.600
; #@! TA.AperFunction,Plated,PTH,ComponentDrill
T4C0.850
; #@! TA.AperFunction,Plated,PTH,ComponentDrill
T5C0.900
; #@! TA.AperFunction,Plated,PTH,ComponentDrill
T6C1.000
; #@! TA.AperFunction,Plated,PTH,ComponentDrill
T7C1.020
; #@! TA.AperFunction,Plated,PTH,ComponentDrill
T8C1.200
; #@! TA.AperFunction,Plated,PTH,ComponentDrill
T9C1.600
; #@! TA.AperFunction,Plated,PTH,ComponentDrill
T10C1.800
%
G90
G05
T1
X166.85Y-107.75
X166.85Y-108.6
X168.85Y-114.1
X169.4Y-121.5
X169.4Y-124.7
X169.6Y-126.9
X172.4Y-134.35
X172.7Y-127.0
X181.65Y-120.75
X182.037Y-108.175
X182.037Y-109.025
X182.7Y-118.8
X183.075Y-88.225
X183.55Y-130.925
X183.55Y-131.775
X183.575Y-89.4
X184.35Y-124.25
X184.4Y-56.0
X184.6Y-97.2
X184.9Y-86.925
X185.0Y-117.75
X185.55Y-124.3
X185.7Y-126.6
X185.8Y-122.5
X186.35Y-86.825
X186.4Y-56.0
X186.4Y-97.2
X186.4Y-130.35
X186.4Y-132.6
X186.45Y-133.474
X186.45Y-135.3
X187.0Y-76.2
X187.0Y-96.2
X187.0Y-99.6
X187.7Y-86.85
X187.7Y-113.95
X188.2Y-76.2
X188.3Y-119.0
X188.3Y-121.1
X188.4Y-99.6
X188.6Y-122.2
X188.649Y-123.699
X189.2Y-56.0
X189.251Y-124.301
X189.4Y-75.0
X189.4Y-76.2
X190.0Y-72.6
X190.0Y-73.8
X191.4Y-56.0
X191.4Y-58.2
X191.4Y-60.2
X191.4Y-62.0
X191.4Y-64.6
X191.4Y-65.6
X191.48Y-137.65
X191.6Y-73.8
X192.7Y-100.1
X192.7Y-117.6
X192.707Y-108.693
X193.05Y-133.05
X193.137Y-134.162
X193.4Y-73.8
X193.586Y-100.1
X193.78Y-119.92
X193.843Y-137.707
X194.4Y-73.8
X194.522Y-100.05
X194.65Y-130.0
X194.672Y-134.755
X195.015Y-130.826
X195.1Y-97.6
X195.2Y-129.35
X195.31Y-120.34
X195.444Y-124.485
X195.5Y-132.474
X195.6Y-100.1
X195.876Y-126.4
X196.0Y-98.5
X196.2Y-106.75
X196.476Y-127.75
X197.171Y-101.947
X197.2Y-104.3
X197.3Y-103.2
X197.65Y-136.703
X198.0Y-95.6
X198.276Y-136.076
X198.69Y-122.85
X199.007Y-125.18
X199.39Y-116.2
X199.545Y-126.324
X200.05Y-134.45
X200.1Y-77.4
X200.1Y-133.5
X200.26Y-113.26
X200.5Y-76.2
X201.18Y-115.46
X201.3Y-137.7
X201.6Y-69.4
X201.727Y-124.677
X202.1Y-66.55
X202.157Y-125.957
X202.4Y-136.1
X202.431Y-122.13
X202.5Y-112.9
X202.9Y-134.9
X202.915Y-137.5
X203.7Y-134.9
X203.943Y-108.757
X204.05Y-113.969
X204.3Y-134.3
X204.546Y-125.053
X204.8Y-115.9
X205.0Y-87.2
X205.0Y-90.0
X205.0Y-94.2
X205.0Y-96.6
X205.0Y-135.9
X205.1Y-129.9
X206.15Y-111.1
X207.1Y-105.1
X207.3Y-99.7
X207.6Y-65.15
X207.65Y-66.45
X207.8Y-71.9
X208.15Y-116.15
X208.353Y-78.311
X208.4Y-102.3
X209.05Y-116.45
X209.274Y-133.911
X209.474Y-109.573
X209.55Y-85.4
X209.7Y-115.8
X210.395Y-86.319
X210.9Y-85.7
X216.8Y-99.3
X216.9Y-74.5
X217.2Y-73.6
X217.2Y-100.1
X217.5Y-120.4
X218.0Y-135.4
X218.0Y-136.2
X218.0Y-137.0
X218.2Y-74.754
X218.8Y-135.4
X218.8Y-136.2
X218.8Y-137.0
X219.3Y-74.754
X219.4Y-133.6
X219.4Y-134.4
X219.4Y-135.1
X219.5Y-136.2
X220.2Y-133.6
X220.2Y-134.4
X220.2Y-135.1
X220.2Y-136.3
X221.3Y-81.516
X221.675Y-86.925
X221.7Y-90.1
X223.694Y-101.2
X224.15Y-87.7
X224.25Y-89.5
X224.469Y-105.072
X224.497Y-86.49
X224.52Y-85.63
X224.8Y-80.4
X224.8Y-105.8
X224.85Y-67.7
X225.175Y-88.175
X225.822Y-101.126
X225.9Y-106.0
X226.0Y-93.2
X226.176Y-66.25
X226.6Y-100.7
X226.635Y-65.003
X226.9Y-83.37
X226.974Y-71.05
X227.0Y-88.5
X227.0Y-90.6
X227.9Y-128.6
X227.994Y-133.875
X228.8Y-77.8
X228.8Y-99.0
X228.8Y-113.1
X229.45Y-67.5
X230.1Y-83.1
X230.2Y-88.45
X230.205Y-86.45
X230.3Y-68.126
X230.785Y-85.9
X230.9Y-87.8
X231.0Y-99.0
X232.2Y-89.7
X232.8Y-77.2
X232.8Y-78.6
X233.2Y-101.23
X233.4Y-91.6
X233.6Y-94.0
X233.6Y-98.2
X233.8Y-120.1
X234.284Y-109.504
X235.1Y-86.0
X235.2Y-78.4
X235.4Y-77.2
X235.4Y-133.0
X235.8Y-101.2
X236.1Y-89.076
X236.43Y-135.32
X236.6Y-137.0
X238.0Y-93.8
X238.1Y-104.8
X238.1Y-126.0
X238.314Y-107.558
X238.4Y-81.05
X238.9Y-103.073
X239.0Y-135.3
X239.0Y-136.9
X239.6Y-82.0
X239.6Y-104.8
X239.8Y-119.3
X240.1Y-110.0
X240.292Y-107.896
X240.6Y-127.6
X240.612Y-109.193
X240.755Y-111.499
X240.8Y-90.9
X241.05Y-81.45
X241.98Y-111.97
X242.4Y-89.0
X242.43Y-103.1
X242.5Y-137.0
X243.0Y-74.0
X243.03Y-105.753
X243.2Y-63.6
X243.2Y-65.6
X243.2Y-72.4
X243.25Y-111.875
X243.8Y-135.15
X244.35Y-106.45
X244.55Y-81.65
X245.025Y-135.125
X245.446Y-82.1
X245.8Y-83.4
X245.8Y-84.6
X245.8Y-86.2
X246.0Y-137.0
X246.3Y-110.8
X246.7Y-109.474
X246.8Y-82.0
X246.9Y-132.9
X247.349Y-106.335
X248.65Y-88.5
X248.825Y-116.8
X248.876Y-112.009
X248.974Y-110.2
X249.6Y-81.6
X249.7Y-80.4
X249.75Y-139.25
X249.95Y-73.3
X250.05Y-88.55
X250.35Y-85.4
X250.95Y-112.075
X251.7Y-78.725
X253.25Y-139.0
X253.8Y-74.4
X253.8Y-90.6
T2
X163.125Y-79.3
X163.175Y-76.525
X163.2Y-74.85
X165.2Y-63.0
X165.8Y-74.95
X165.95Y-76.55
X166.0Y-69.7
X166.0Y-72.55
X167.25Y-89.0
X167.25Y-90.25
X167.3Y-103.2
X167.3Y-104.8
X168.9Y-101.0
X169.2Y-56.4
X169.2Y-58.6
X169.9Y-101.0
X169.9Y-102.2
X170.4Y-136.0
X170.4Y-137.4
X171.1Y-102.3
X172.4Y-136.0
X172.4Y-137.4
X172.5Y-66.9
X172.6Y-61.9
X172.6Y-121.6
X172.6Y-124.8
X173.0Y-128.6
X173.2Y-56.4
X173.9Y-137.1
X174.0Y-119.4
X174.6Y-63.794
X175.0Y-137.0
X175.0Y-138.0
X175.725Y-73.5
X175.89Y-107.18
X176.0Y-114.4
X176.1Y-117.5
X176.2Y-116.0
X176.4Y-137.0
X176.5Y-138.1
X176.8Y-80.2
X176.8Y-84.0
X176.8Y-99.6
X176.8Y-103.2
X176.8Y-104.28
X176.82Y-101.849
X177.0Y-97.6
X177.0Y-105.4
X177.2Y-56.4
X177.2Y-58.8
X177.2Y-61.6
X177.2Y-65.0
X177.5Y-138.0
X177.6Y-136.9
X177.7Y-73.625
X177.8Y-114.4
X177.8Y-116.0
X177.8Y-117.5
X178.0Y-80.0
X178.2Y-84.0
X178.3Y-135.2
X178.7Y-136.9
X178.8Y-138.1
X179.3Y-135.2
X179.6Y-77.5
X180.0Y-116.0
X180.0Y-131.25
X180.1Y-114.4
X180.1Y-138.0
X180.5Y-89.7
X180.5Y-135.2
X180.525Y-101.5
X181.0Y-76.5
X181.0Y-122.5
X181.7Y-126.1
X181.7Y-127.1
X181.7Y-128.2
X181.998Y-89.4
X182.0Y-114.4
X182.0Y-116.0
X182.2Y-73.8
X182.2Y-135.3
X182.2Y-138.2
X182.3Y-132.6
X182.4Y-56.4
X182.4Y-58.8
X182.4Y-122.5
X182.65Y-95.675
X182.675Y-99.225
X182.7Y-80.7
X183.1Y-136.0
X183.1Y-136.9
X183.2Y-127.0
X183.2Y-128.2
X183.8Y-99.3
X183.8Y-133.3
X184.37Y-107.637
X184.4Y-127.0
X184.4Y-128.2
X184.5Y-92.05
X184.8Y-138.2
X185.4Y-75.6
X185.4Y-128.2
X185.5Y-116.5
X186.0Y-113.081
X186.8Y-128.2
X187.1Y-70.3
X187.5Y-138.1
X187.756Y-136.683
X188.7Y-138.2
X189.0Y-81.3
X189.6Y-119.525
X189.6Y-120.575
X189.75Y-101.5
X189.8Y-132.0
X189.8Y-133.3
X189.8Y-134.4
X190.429Y-130.271
X191.0Y-132.1
X191.0Y-133.1
X191.0Y-134.2
X191.125Y-110.825
X191.15Y-112.725
X191.15Y-114.875
X191.171Y-129.529
X191.7Y-131.4
X192.126Y-139.993
X192.9Y-77.9
X193.1Y-83.3
X193.6Y-91.3
X193.9Y-77.9
X195.1Y-83.3
X195.7Y-113.1
X196.07Y-115.01
X196.1Y-110.6
X197.241Y-109.336
X197.7Y-84.2
X197.8Y-82.6
X198.2Y-99.1
X198.5Y-79.25
X199.211Y-99.059
X199.525Y-104.425
X200.2Y-99.2
X200.275Y-126.85
X200.454Y-112.18
X200.6Y-108.625
X200.625Y-109.8
X200.832Y-106.75
X200.936Y-67.436
X201.505Y-71.6
X201.573Y-79.12
X201.7Y-112.3
X202.0Y-55.6
X202.0Y-57.0
X202.0Y-58.0
X202.0Y-59.2
X202.0Y-60.8
X202.0Y-62.2
X202.3Y-68.5
X202.773Y-121.298
X202.8Y-109.9
X203.1Y-70.1
X203.375Y-120.5
X203.4Y-55.6
X203.4Y-57.0
X203.4Y-58.0
X203.4Y-59.2
X203.4Y-60.8
X203.4Y-62.2
X203.8Y-117.6
X204.0Y-104.6
X204.0Y-106.25
X205.775Y-136.575
X206.5Y-85.035
X207.6Y-82.447
X208.2Y-85.2
X208.2Y-87.2
X208.2Y-88.6
X208.2Y-94.6
X208.2Y-97.4
X208.2Y-100.4
X209.0Y-103.7
X209.25Y-106.25
X209.3Y-124.15
X209.4Y-105.1
X209.525Y-134.775
X209.6Y-63.6
X209.6Y-64.8
X209.6Y-66.0
X209.775Y-122.75
X210.75Y-120.0
X210.75Y-134.75
X210.75Y-135.75
X210.75Y-136.75
X210.75Y-137.75
X210.8Y-63.6
X210.8Y-64.8
X210.8Y-66.0
X210.8Y-121.4
X211.397Y-111.4
X211.5Y-97.0
X211.5Y-124.0
X211.5Y-127.75
X211.6Y-101.9
X211.75Y-104.0
X212.0Y-112.75
X212.25Y-134.75
X212.25Y-135.75
X212.25Y-136.75
X212.25Y-137.75
X212.4Y-63.6
X212.4Y-64.8
X212.4Y-66.0
X212.4Y-86.4
X212.5Y-122.5
X213.0Y-114.4
X213.1Y-89.45
X213.25Y-133.75
X213.25Y-134.75
X213.25Y-135.75
X213.25Y-136.75
X213.25Y-137.75
X213.7Y-110.7
X213.8Y-63.6
X213.8Y-64.8
X213.8Y-66.0
X213.8Y-127.6
X214.25Y-133.75
X214.25Y-134.75
X214.25Y-135.75
X214.25Y-136.75
X214.25Y-137.75
X215.25Y-137.5
X215.5Y-136.5
X215.6Y-63.6
X215.6Y-64.8
X215.6Y-66.0
X215.6Y-74.653
X216.0Y-125.0
X216.0Y-127.75
X216.2Y-121.5
X217.0Y-124.0
X217.094Y-101.095
X217.094Y-102.35
X217.25Y-110.25
X217.25Y-112.75
X217.4Y-63.6
X217.4Y-64.8
X217.4Y-66.0
X217.8Y-90.4
X217.8Y-91.8
X217.8Y-93.2
X217.8Y-95.6
X218.0Y-127.75
X218.3Y-76.273
X219.0Y-63.6
X219.0Y-64.8
X219.0Y-66.0
X219.4Y-76.273
X219.5Y-137.5
X219.5Y-138.5
X219.75Y-128.0
X220.2Y-113.4
X220.5Y-137.5
X220.6Y-63.6
X220.6Y-64.8
X220.6Y-66.0
X220.6Y-114.8
X220.694Y-87.05
X221.1Y-69.0
X221.24Y-122.069
X221.524Y-106.652
X221.9Y-110.65
X222.051Y-91.926
X222.131Y-102.253
X222.362Y-88.929
X223.0Y-90.8
X224.0Y-93.7
X224.399Y-123.026
X224.6Y-129.45
X224.6Y-133.6
X224.75Y-136.75
X224.75Y-138.0
X225.4Y-55.6
X225.4Y-57.2
X225.4Y-58.6
X225.4Y-60.4
X225.4Y-61.8
X225.5Y-124.75
X225.6Y-90.6
X226.0Y-95.0
X226.0Y-97.4
X226.0Y-99.4
X226.0Y-129.0
X226.0Y-136.0
X226.0Y-137.5
X226.475Y-123.2
X226.55Y-110.75
X226.6Y-55.6
X226.6Y-57.2
X226.6Y-58.6
X226.6Y-60.4
X226.6Y-61.8
X226.85Y-117.2
X227.3Y-125.5
X227.375Y-135.9
X227.4Y-133.2
X227.7Y-112.6
X227.75Y-136.75
X228.0Y-130.25
X228.0Y-135.25
X228.25Y-120.5
X228.25Y-123.5
X228.478Y-76.583
X229.6Y-91.4
X229.8Y-66.4
X230.25Y-135.5
X230.25Y-136.75
X230.6Y-110.4
X231.195Y-62.78
X231.195Y-71.2
X231.5Y-135.85
X231.5Y-137.0
X231.925Y-80.875
X232.0Y-100.4
X232.115Y-115.898
X232.3Y-121.573
X232.75Y-69.5
X233.1Y-123.2
X233.275Y-105.164
X233.3Y-125.2
X233.601Y-112.801
X233.8Y-126.55
X234.25Y-133.05
X234.8Y-94.2
X234.8Y-97.4
X234.8Y-100.4
X235.4Y-90.6
X235.9Y-93.9
X235.9Y-95.5
X236.025Y-114.075
X236.373Y-62.32
X236.4Y-71.0
X236.4Y-121.95
X237.0Y-94.2
X237.0Y-100.4
X238.2Y-114.3
X238.7Y-123.649
X239.89Y-96.57
X240.025Y-126.65
X240.6Y-132.2
X240.675Y-98.77
X240.83Y-104.743
X241.073Y-108.342
X241.64Y-96.54
X241.65Y-131.9
X241.796Y-84.2
X241.825Y-95.4
X242.8Y-90.7
X243.9Y-121.775
X244.275Y-118.35
X244.712Y-108.671
X244.8Y-110.9
X245.8Y-58.1
X246.15Y-104.8
X246.35Y-103.27
X246.75Y-95.062
X246.83Y-98.56
X247.2Y-83.6
X247.25Y-118.1
X247.55Y-103.85
X247.75Y-110.95
X247.875Y-119.325
X247.9Y-121.35
X248.11Y-98.48
X248.5Y-103.0
X248.5Y-133.6
X249.47Y-64.675
X249.6Y-83.2
X249.73Y-94.9
X249.745Y-74.219
X250.8Y-100.8
X250.91Y-95.19
X251.15Y-98.35
X252.05Y-125.85
X252.2Y-92.4
X252.2Y-94.4
X252.6Y-118.025
X253.075Y-134.275
X253.8Y-92.4
X253.8Y-94.4
X253.8Y-108.6
X253.8Y-111.4
X254.875Y-124.85
X254.875Y-127.6
X254.9Y-118.925
X255.15Y-132.65
X256.2Y-108.6
X256.4Y-106.4
X257.0Y-90.4
X258.6Y-90.4
X258.6Y-106.4
X258.6Y-108.6
T4
X164.912Y-106.0
X164.912Y-111.0
T5
X176.2Y-88.88
X176.2Y-93.98
X176.63Y-119.17
X176.63Y-121.71
X176.63Y-124.25
X176.63Y-126.79
X179.17Y-120.44
X179.17Y-122.98
X179.17Y-125.52
X179.17Y-128.06
T6
X228.91Y-59.475
X231.45Y-59.475
X233.99Y-59.475
X236.53Y-59.475
T7
X165.2Y-117.29
X165.2Y-127.4
X166.9Y-119.83
X166.9Y-129.94
T8
X257.735Y-59.195
X257.735Y-62.695
X257.735Y-66.195
X257.735Y-69.695
X257.735Y-76.5
X257.735Y-80.0
X257.735Y-83.5
X257.735Y-87.0
X257.735Y-93.75
X257.735Y-97.25
X257.735Y-100.75
X257.735Y-104.25
X257.735Y-110.6
X257.735Y-114.1
X257.735Y-117.6
X257.735Y-121.1
X257.735Y-127.325
X257.735Y-130.825
X257.735Y-134.325
X257.735Y-137.825
T9
X173.33Y-115.74
X173.33Y-131.49
T10
X162.75Y-70.55
X162.75Y-83.85
X171.95Y-72.4
X171.95Y-77.2
X171.95Y-81.925
T3
G00X161.862Y-105.0
M15
G01X162.562Y-105.0
M16
G05
G00X162.562Y-112.0
M15
G01X161.862Y-112.0
M16
G05
T6
G00X166.3Y-91.8
M15
G01X166.3Y-93.8
M16
G05
G00X168.3Y-97.5
M15
G01X170.3Y-97.5
M16
G05
G00X172.3Y-91.8
M15
G01X172.3Y-93.8
M16
G05
T0
M30
