G04 #@! TF.GenerationSoftware,KiCad,Pcbnew,7.0.2*
G04 #@! TF.CreationDate,2023-07-29T12:14:20+03:00*
G04 #@! TF.ProjectId,ELIESTER_V2,454c4945-5354-4455-925f-56322e6b6963,rev?*
G04 #@! TF.SameCoordinates,Original*
G04 #@! TF.FileFunction,Soldermask,Bot*
G04 #@! TF.FilePolarity,Negative*
%FSLAX46Y46*%
G04 Gerber Fmt 4.6, Leading zero omitted, Abs format (unit mm)*
G04 Created by KiCad (PCBNEW 7.0.2) date 2023-07-29 12:14:20*
%MOMM*%
%LPD*%
G01*
G04 APERTURE LIST*
G04 Aperture macros list*
%AMRoundRect*
0 Rectangle with rounded corners*
0 $1 Rounding radius*
0 $2 $3 $4 $5 $6 $7 $8 $9 X,Y pos of 4 corners*
0 Add a 4 corners polygon primitive as box body*
4,1,4,$2,$3,$4,$5,$6,$7,$8,$9,$2,$3,0*
0 Add four circle primitives for the rounded corners*
1,1,$1+$1,$2,$3*
1,1,$1+$1,$4,$5*
1,1,$1+$1,$6,$7*
1,1,$1+$1,$8,$9*
0 Add four rect primitives between the rounded corners*
20,1,$1+$1,$2,$3,$4,$5,0*
20,1,$1+$1,$4,$5,$6,$7,0*
20,1,$1+$1,$6,$7,$8,$9,0*
20,1,$1+$1,$8,$9,$2,$3,0*%
G04 Aperture macros list end*
%ADD10RoundRect,0.135000X0.135000X0.185000X-0.135000X0.185000X-0.135000X-0.185000X0.135000X-0.185000X0*%
%ADD11RoundRect,0.135000X0.185000X-0.135000X0.185000X0.135000X-0.185000X0.135000X-0.185000X-0.135000X0*%
%ADD12RoundRect,0.150000X-0.587500X-0.150000X0.587500X-0.150000X0.587500X0.150000X-0.587500X0.150000X0*%
%ADD13C,1.500000*%
%ADD14R,3.500000X3.500000*%
%ADD15RoundRect,0.750000X-0.750000X-1.000000X0.750000X-1.000000X0.750000X1.000000X-0.750000X1.000000X0*%
%ADD16RoundRect,0.875000X-0.875000X-0.875000X0.875000X-0.875000X0.875000X0.875000X-0.875000X0.875000X0*%
%ADD17C,3.200000*%
%ADD18RoundRect,0.250000X1.550000X-0.650000X1.550000X0.650000X-1.550000X0.650000X-1.550000X-0.650000X0*%
%ADD19O,3.600000X1.800000*%
%ADD20C,0.500000*%
%ADD21O,1.900000X1.200000*%
%ADD22C,1.450000*%
%ADD23R,1.700000X1.700000*%
%ADD24O,1.700000X1.700000*%
%ADD25C,2.800000*%
%ADD26C,3.250000*%
%ADD27R,1.400000X1.400000*%
%ADD28C,1.400000*%
%ADD29C,1.530000*%
%ADD30C,2.400000*%
%ADD31RoundRect,0.150000X0.512500X0.150000X-0.512500X0.150000X-0.512500X-0.150000X0.512500X-0.150000X0*%
%ADD32R,1.000000X1.050000*%
%ADD33R,1.050000X2.200000*%
%ADD34RoundRect,0.225000X-0.225000X-0.250000X0.225000X-0.250000X0.225000X0.250000X-0.225000X0.250000X0*%
%ADD35RoundRect,0.225000X0.250000X-0.225000X0.250000X0.225000X-0.250000X0.225000X-0.250000X-0.225000X0*%
%ADD36RoundRect,0.147500X-0.147500X-0.172500X0.147500X-0.172500X0.147500X0.172500X-0.147500X0.172500X0*%
%ADD37RoundRect,0.200000X0.200000X0.275000X-0.200000X0.275000X-0.200000X-0.275000X0.200000X-0.275000X0*%
%ADD38C,0.900000*%
%ADD39C,1.000000*%
%ADD40R,1.200000X2.000000*%
%ADD41R,0.950000X2.000000*%
%ADD42RoundRect,0.140000X0.140000X0.170000X-0.140000X0.170000X-0.140000X-0.170000X0.140000X-0.170000X0*%
%ADD43R,2.000000X0.500000*%
%ADD44R,0.500000X2.000000*%
%ADD45RoundRect,0.200000X0.275000X-0.200000X0.275000X0.200000X-0.275000X0.200000X-0.275000X-0.200000X0*%
%ADD46RoundRect,0.140000X-0.170000X0.140000X-0.170000X-0.140000X0.170000X-0.140000X0.170000X0.140000X0*%
%ADD47RoundRect,0.147500X0.147500X0.172500X-0.147500X0.172500X-0.147500X-0.172500X0.147500X-0.172500X0*%
%ADD48RoundRect,0.140000X0.170000X-0.140000X0.170000X0.140000X-0.170000X0.140000X-0.170000X-0.140000X0*%
%ADD49RoundRect,0.140000X-0.140000X-0.170000X0.140000X-0.170000X0.140000X0.170000X-0.140000X0.170000X0*%
%ADD50RoundRect,0.225000X0.225000X0.250000X-0.225000X0.250000X-0.225000X-0.250000X0.225000X-0.250000X0*%
%ADD51RoundRect,0.135000X-0.135000X-0.185000X0.135000X-0.185000X0.135000X0.185000X-0.135000X0.185000X0*%
%ADD52RoundRect,0.250000X-0.425000X0.450000X-0.425000X-0.450000X0.425000X-0.450000X0.425000X0.450000X0*%
%ADD53RoundRect,0.200000X-0.200000X-0.275000X0.200000X-0.275000X0.200000X0.275000X-0.200000X0.275000X0*%
%ADD54R,1.600000X2.500000*%
%ADD55RoundRect,0.150000X0.150000X-0.587500X0.150000X0.587500X-0.150000X0.587500X-0.150000X-0.587500X0*%
G04 APERTURE END LIST*
D10*
X198350000Y-115530000D03*
X197330000Y-115530000D03*
X200410000Y-115520000D03*
X199390000Y-115520000D03*
D11*
X195870000Y-117590000D03*
X195870000Y-116570000D03*
D10*
X198340000Y-120560000D03*
X197320000Y-120560000D03*
X200910000Y-120590000D03*
X199890000Y-120590000D03*
D11*
X196750000Y-123350000D03*
X196750000Y-122330000D03*
D12*
X197432500Y-118790000D03*
X197432500Y-116890000D03*
X199307500Y-117840000D03*
X198332500Y-123800000D03*
X198332500Y-121900000D03*
X200207500Y-122850000D03*
D13*
X176200000Y-88880000D03*
X176200000Y-93980000D03*
D14*
X172300000Y-92800000D03*
D15*
X166300000Y-92800000D03*
D16*
X169300000Y-97500000D03*
D17*
X164000000Y-58300000D03*
D18*
X257735000Y-104250000D03*
D19*
X257735000Y-100750000D03*
X257735000Y-97250000D03*
X257735000Y-93750000D03*
D20*
X242100000Y-56700000D03*
X243800000Y-56700000D03*
D21*
X162212500Y-105000000D03*
D22*
X164912500Y-106000000D03*
X164912500Y-111000000D03*
D21*
X162212500Y-112000000D03*
D17*
X164000000Y-137900000D03*
D23*
X236530000Y-59475000D03*
D24*
X233990000Y-59475000D03*
X231450000Y-59475000D03*
X228910000Y-59475000D03*
D18*
X257735000Y-121100000D03*
D19*
X257735000Y-117600000D03*
X257735000Y-114100000D03*
X257735000Y-110600000D03*
D20*
X162400000Y-65550000D03*
X162400000Y-63850000D03*
D25*
X171950000Y-81925000D03*
X171950000Y-77200000D03*
X171950000Y-72400000D03*
X162750000Y-70550000D03*
X162750000Y-83850000D03*
D26*
X170280000Y-117900000D03*
X170280000Y-129330000D03*
D27*
X176630000Y-119170000D03*
D28*
X179170000Y-120440000D03*
X176630000Y-121710000D03*
X179170000Y-122980000D03*
X176630000Y-124250000D03*
X179170000Y-125520000D03*
X176630000Y-126790000D03*
X179170000Y-128060000D03*
D29*
X165200000Y-117290000D03*
X166900000Y-119830000D03*
X165200000Y-127400000D03*
X166900000Y-129940000D03*
D30*
X173330000Y-115740000D03*
X173330000Y-131490000D03*
D18*
X257735000Y-69695000D03*
D19*
X257735000Y-66195000D03*
X257735000Y-62695000D03*
X257735000Y-59195000D03*
D18*
X257735000Y-137825000D03*
D19*
X257735000Y-134325000D03*
X257735000Y-130825000D03*
X257735000Y-127325000D03*
D18*
X257735000Y-87000000D03*
D19*
X257735000Y-83500000D03*
X257735000Y-80000000D03*
X257735000Y-76500000D03*
D31*
X242837500Y-95550000D03*
X242837500Y-96500000D03*
X242837500Y-97450000D03*
X240562500Y-97450000D03*
X240562500Y-95550000D03*
D10*
X202300000Y-136900000D03*
X201280000Y-136900000D03*
D32*
X229025000Y-137175000D03*
D33*
X227550000Y-138700000D03*
X230500000Y-138700000D03*
D17*
X249300000Y-58150000D03*
D34*
X236925000Y-95300000D03*
X238475000Y-95300000D03*
D32*
X216700000Y-137600000D03*
D33*
X215225000Y-139125000D03*
X218175000Y-139125000D03*
D35*
X248420000Y-97500000D03*
X248420000Y-95950000D03*
D36*
X215715000Y-135500000D03*
X216685000Y-135500000D03*
D35*
X250000000Y-97500000D03*
X250000000Y-95950000D03*
D37*
X218325000Y-134200000D03*
X216675000Y-134200000D03*
D38*
X236400000Y-110900000D03*
X220000000Y-104000000D03*
D39*
X251000000Y-119850000D03*
X237000000Y-119850000D03*
D40*
X254200000Y-135600000D03*
X233800000Y-135600000D03*
D41*
X240710000Y-113550000D03*
X239440000Y-113550000D03*
X249600000Y-113550000D03*
X243250000Y-113550000D03*
X244520000Y-113550000D03*
X248330000Y-113550000D03*
X245790000Y-113550000D03*
X247060000Y-113550000D03*
X241980000Y-113550000D03*
D42*
X233280000Y-131100000D03*
X232320000Y-131100000D03*
D43*
X206300000Y-128000000D03*
X206300000Y-127000000D03*
X206300000Y-126000000D03*
X206300000Y-125000000D03*
X206300000Y-124000000D03*
X206300000Y-123000000D03*
X206300000Y-122000000D03*
X206300000Y-121000000D03*
X206300000Y-120000000D03*
X206300000Y-119000000D03*
X206300000Y-118000000D03*
X206300000Y-117000000D03*
X206300000Y-116000000D03*
X206300000Y-115000000D03*
X206300000Y-114000000D03*
X206300000Y-113000000D03*
X206300000Y-112000000D03*
D44*
X210300000Y-108000000D03*
X211300000Y-108000000D03*
X212300000Y-108000000D03*
X213300000Y-108000000D03*
X214300000Y-108000000D03*
X215300000Y-108000000D03*
X216300000Y-108000000D03*
X217300000Y-108000000D03*
X218300000Y-108000000D03*
X219300000Y-108000000D03*
X220300000Y-108000000D03*
X221300000Y-108000000D03*
X222300000Y-108000000D03*
X223300000Y-108000000D03*
X224300000Y-108000000D03*
X225300000Y-108000000D03*
X226300000Y-108000000D03*
D43*
X230300000Y-112000000D03*
X230300000Y-113000000D03*
X230300000Y-114000000D03*
X230300000Y-115000000D03*
X230300000Y-116000000D03*
X230300000Y-117000000D03*
X230300000Y-118000000D03*
X230300000Y-119000000D03*
X230300000Y-120000000D03*
X230300000Y-121000000D03*
X230300000Y-122000000D03*
X230300000Y-123000000D03*
X230300000Y-124000000D03*
X230300000Y-125000000D03*
X230300000Y-126000000D03*
X230300000Y-127000000D03*
X230300000Y-128000000D03*
D44*
X226300000Y-132000000D03*
X225300000Y-132000000D03*
X224300000Y-132000000D03*
X223300000Y-132000000D03*
X222300000Y-132000000D03*
X221300000Y-132000000D03*
X220300000Y-132000000D03*
X219300000Y-132000000D03*
X218300000Y-132000000D03*
X217300000Y-132000000D03*
X216300000Y-132000000D03*
X215300000Y-132000000D03*
X214300000Y-132000000D03*
X213300000Y-132000000D03*
X212300000Y-132000000D03*
X211300000Y-132000000D03*
X210300000Y-132000000D03*
D45*
X206500000Y-139750000D03*
X206500000Y-138100000D03*
D46*
X223800000Y-134320000D03*
X223800000Y-135280000D03*
D38*
X217600000Y-104000000D03*
D47*
X230085000Y-134500000D03*
X229115000Y-134500000D03*
D48*
X238300000Y-106580000D03*
X238300000Y-105620000D03*
D47*
X233285000Y-132100000D03*
X232315000Y-132100000D03*
D46*
X221100000Y-134250000D03*
X221100000Y-135210000D03*
D45*
X208100000Y-139775000D03*
X208100000Y-138125000D03*
D49*
X232320000Y-133100000D03*
X233280000Y-133100000D03*
D11*
X241700000Y-106600000D03*
X241700000Y-105580000D03*
D38*
X203500000Y-123000000D03*
D48*
X239500000Y-106580000D03*
X239500000Y-105620000D03*
D42*
X242860000Y-111100000D03*
X241900000Y-111100000D03*
D50*
X242875000Y-92200000D03*
X241325000Y-92200000D03*
D35*
X245340000Y-97495000D03*
X245340000Y-95945000D03*
D51*
X241890000Y-108800000D03*
X242910000Y-108800000D03*
D37*
X238525000Y-98500000D03*
X236875000Y-98500000D03*
D38*
X215100000Y-104000000D03*
D51*
X231400000Y-134500000D03*
X232420000Y-134500000D03*
D10*
X204310000Y-136300000D03*
X203290000Y-136300000D03*
D38*
X234800000Y-110800000D03*
D42*
X233280000Y-130100000D03*
X232320000Y-130100000D03*
D52*
X222200000Y-137150000D03*
X222200000Y-139850000D03*
D48*
X240600000Y-106580000D03*
X240600000Y-105620000D03*
D38*
X203700000Y-127100000D03*
D53*
X236875000Y-96900000D03*
X238525000Y-96900000D03*
D51*
X241890000Y-109900000D03*
X242910000Y-109900000D03*
D49*
X225340000Y-134500000D03*
X226300000Y-134500000D03*
D46*
X222200000Y-134270000D03*
X222200000Y-135230000D03*
D54*
X242850000Y-101180000D03*
X247250000Y-101180000D03*
D45*
X237900000Y-111025000D03*
X237900000Y-109375000D03*
D35*
X246880000Y-97500000D03*
X246880000Y-95950000D03*
D38*
X215300000Y-102200000D03*
X235900000Y-100100000D03*
D50*
X242875000Y-93900000D03*
X241325000Y-93900000D03*
D31*
X247975000Y-107500000D03*
X247975000Y-108450000D03*
X247975000Y-109400000D03*
X245700000Y-109400000D03*
X245700000Y-107500000D03*
D45*
X233200000Y-110825000D03*
X233200000Y-109175000D03*
D51*
X241915000Y-107800000D03*
X242935000Y-107800000D03*
D13*
X236400000Y-92900000D03*
D55*
X208250000Y-136325000D03*
X206350000Y-136325000D03*
X207300000Y-134450000D03*
M02*
